<?xml version="1.0" encoding="iso-8859-1"?>
<!-- Generator: Adobe Illustrator 19.0.0, SVG Export Plug-In . SVG Version: 6.00 Build 0)  -->
<svg xmlns="http://www.w3.org/2000/svg" xmlns:xlink="http://www.w3.org/1999/xlink" version="1.1" id="Capa_1" x="0px" y="0px" viewBox="0 0 512 512" style="enable-background:new 0 0 512 512;" xml:space="preserve">
<path style="fill:#FF415D;" d="M369.5,22.5c-3.325,0-6.618,0.133-9.882,0.369L256,489.5c0,0,248.5-139.785,248.5-332  C504.5,82.942,444.058,22.5,369.5,22.5z"/>
<path style="fill:#FF7472;" d="M464.5,157.5c0-71.196-46.242-129.515-104.882-134.631C316.133,26.016,278.357,49.751,256,84.384  C231.965,47.151,190.113,22.5,142.5,22.5c-74.558,0-135,60.442-135,135c0,192.215,248.5,332,248.5,332S464.5,349.715,464.5,157.5z"/>
<g>
	<circle style="fill:#FF415D;" cx="163.5" cy="241" r="15"/>
	<circle style="fill:#FF415D;" cx="348.5" cy="241" r="15"/>
</g>
<path d="M369.5,15c-44.938,0-86.602,20.861-113.5,56.32C229.102,35.861,187.438,15,142.5,15C63.925,15,0,78.925,0,157.5  c0,45.183,13.405,91.186,39.842,136.731c20.971,36.127,50.156,72.056,86.745,106.789c62.082,58.933,125.107,94.663,125.737,95.017  c1.141,0.642,2.409,0.963,3.677,0.963s2.536-0.321,3.677-0.963c0.63-0.354,63.655-36.084,125.737-95.017  c36.589-34.733,65.774-70.662,86.745-106.789C498.595,248.686,512,202.683,512,157.5C512,78.925,448.075,15,369.5,15z   M375.324,389.915C323.083,439.558,270.182,472.376,256,480.814c-14.182-8.438-67.083-41.256-119.324-90.899  C81.168,337.168,15,254.029,15,157.5C15,87.196,72.196,30,142.5,30c43.498,0,83.572,21.851,107.199,58.451  c1.381,2.14,3.754,3.433,6.301,3.433s4.92-1.292,6.301-3.433C285.928,51.851,326.002,30,369.5,30C439.804,30,497,87.196,497,157.5  C497,254.029,430.832,337.168,375.324,389.915z"/>
<path d="M303.5,248.5c-4.142,0-7.5,3.358-7.5,7.5c0,22.056-17.944,40-40,40s-40-17.944-40-40c0-4.142-3.358-7.5-7.5-7.5  s-7.5,3.358-7.5,7.5c0,30.327,24.673,55,55,55s55-24.673,55-55C311,251.858,307.642,248.5,303.5,248.5z"/>
<path d="M208.5,233.5c4.142,0,7.5-3.358,7.5-7.5v-17.5c0-4.142-3.358-7.5-7.5-7.5s-7.5,3.358-7.5,7.5V226  C201,230.142,204.358,233.5,208.5,233.5z"/>
<path d="M303.5,201c-4.142,0-7.5,3.358-7.5,7.5V226c0,4.142,3.358,7.5,7.5,7.5s7.5-3.358,7.5-7.5v-17.5  C311,204.358,307.642,201,303.5,201z"/>
<path d="M178.5,233.5c-4.142,0-7.5,3.358-7.5,7.5c0,4.136-3.364,7.5-7.5,7.5s-7.5-3.364-7.5-7.5s3.364-7.5,7.5-7.5  c4.142,0,7.5-3.358,7.5-7.5s-3.358-7.5-7.5-7.5c-12.407,0-22.5,10.093-22.5,22.5s10.093,22.5,22.5,22.5S186,253.407,186,241  C186,236.858,182.642,233.5,178.5,233.5z"/>
<path d="M363.5,233.5c-4.142,0-7.5,3.358-7.5,7.5c0,4.136-3.364,7.5-7.5,7.5s-7.5-3.364-7.5-7.5s3.364-7.5,7.5-7.5  c4.142,0,7.5-3.358,7.5-7.5s-3.358-7.5-7.5-7.5c-12.407,0-22.5,10.093-22.5,22.5s10.093,22.5,22.5,22.5S371,253.407,371,241  C371,236.858,367.642,233.5,363.5,233.5z"/>
<g>
</g>
<g>
</g>
<g>
</g>
<g>
</g>
<g>
</g>
<g>
</g>
<g>
</g>
<g>
</g>
<g>
</g>
<g>
</g>
<g>
</g>
<g>
</g>
<g>
</g>
<g>
</g>
<g>
</g>
</svg>
